<svg xmlns="http://www.w3.org/2000/svg" viewBox="0 0 750 500"><g id="freepik--background-complete--inject-44"><path d="M604.05,69.68l5.89-9.49L607,58.39a2.67,2.67,0,0,1-1.23-2.5,13.25,13.25,0,0,0,.05-1.67,2.68,2.68,0,0,1,1.39-2.41l3-1.61L605,40.35,602,42a2.66,2.66,0,0,1-2.77-.18c-.46-.32-.94-.61-1.42-.88a2.64,2.64,0,0,1-1.4-2.41l.11-3.42-11.17-.34-.1,3.43a2.67,2.67,0,0,1-1.56,2.31c-.24.11-.49.24-.73.37s-.48.26-.72.41a2.68,2.68,0,0,1-2.77,0l-2.93-1.82L570.62,49l2.91,1.81a2.66,2.66,0,0,1,1.23,2.5,15.35,15.35,0,0,0-.06,1.66,2.66,2.66,0,0,1-1.38,2.41l-3,1.62,5.28,9.84,3-1.61a2.64,2.64,0,0,1,2.77.17,16,16,0,0,0,1.42.88,2.66,2.66,0,0,1,1.4,2.41l-.11,3.42,11.16.35.11-3.43a2.66,2.66,0,0,1,1.55-2.3c.25-.12.5-.24.74-.38l.72-.4a2.67,2.67,0,0,1,2.79,0Zm-9.45-7.05a9.14,9.14,0,1,1,3.75-12.38A9.14,9.14,0,0,1,594.6,62.63Z" style="fill:#ebebeb"/><path d="M127,332.79,123.07,326l-2.07,1.2a1.85,1.85,0,0,1-2-.07,10.14,10.14,0,0,0-1-.58,1.86,1.86,0,0,1-1-1.66v-2.39h-7.83v2.39a1.86,1.86,0,0,1-1,1.66,10.14,10.14,0,0,0-1,.58,1.85,1.85,0,0,1-2,.07l-2.07-1.2-3.91,6.78,2.08,1.2a1.85,1.85,0,0,1,.91,1.72c0,.19,0,.39,0,.58s0,.38,0,.57a1.84,1.84,0,0,1-.91,1.72l-2.08,1.21,3.91,6.78,2.08-1.2a1.85,1.85,0,0,1,2,.07c.32.21.66.4,1,.58a1.85,1.85,0,0,1,1,1.65v2.4H117v-2.4a1.85,1.85,0,0,1,1-1.65c.34-.18.68-.37,1-.58a1.85,1.85,0,0,1,1.95-.07l2.08,1.2,3.91-6.78-2.08-1.2a1.86,1.86,0,0,1-.9-1.72c0-.19,0-.39,0-.58s0-.39,0-.58a1.85,1.85,0,0,1,.91-1.72Zm-7.48,3.5a6.41,6.41,0,1,1-6.4-6.41A6.39,6.39,0,0,1,119.5,336.29Z" style="fill:#ebebeb"/><path d="M95.18,233.09a30.47,30.47,0,1,0,30.47,30.47A30.46,30.46,0,0,0,95.18,233.09Zm0,44.69a14.23,14.23,0,1,1,14.23-14.22A14.22,14.22,0,0,1,95.18,277.78Z" style="fill:#ebebeb"/><polygon points="101.04 234.35 89.32 234.35 89.97 226.06 100.39 226.06 101.04 234.35" style="fill:#ebebeb"/><polygon points="78.73 238.3 70.45 246.58 65.04 240.26 72.41 232.89 78.73 238.3" style="fill:#ebebeb"/><polygon points="65.76 256.86 65.76 268.58 57.46 267.93 57.46 257.51 65.76 256.86" style="fill:#ebebeb"/><polygon points="69.7 279.16 77.99 287.45 71.67 292.86 64.3 285.49 69.7 279.16" style="fill:#ebebeb"/><polygon points="88.27 292.14 99.98 292.14 99.34 300.44 88.92 300.44 88.27 292.14" style="fill:#ebebeb"/><polygon points="110.57 288.19 118.86 279.91 124.26 286.23 116.89 293.6 110.57 288.19" style="fill:#ebebeb"/><polygon points="123.55 269.63 123.55 257.91 131.84 258.56 131.84 268.99 123.55 269.63" style="fill:#ebebeb"/><polygon points="119.6 247.33 111.32 239.04 117.64 233.64 125.01 241 119.6 247.33" style="fill:#ebebeb"/><path d="M655.87,82.83a30.48,30.48,0,1,0,30.48,30.48A30.47,30.47,0,0,0,655.87,82.83Zm0,44.7a14.23,14.23,0,1,1,14.24-14.22A14.22,14.22,0,0,1,655.87,127.53Z" style="fill:#ebebeb"/><polygon points="661.73 84.1 650.01 84.1 650.66 75.8 661.09 75.8 661.73 84.1" style="fill:#ebebeb"/><polygon points="639.43 88.05 631.14 96.33 625.74 90.01 633.11 82.64 639.43 88.05" style="fill:#ebebeb"/><polygon points="626.45 106.61 626.45 118.33 618.16 117.68 618.16 107.26 626.45 106.61" style="fill:#ebebeb"/><polygon points="630.4 128.91 638.68 137.2 632.36 142.6 624.99 135.24 630.4 128.91" style="fill:#ebebeb"/><polygon points="648.96 141.89 660.68 141.89 660.03 150.19 649.61 150.19 648.96 141.89" style="fill:#ebebeb"/><polygon points="671.26 137.94 679.55 129.66 684.96 135.98 677.59 143.35 671.26 137.94" style="fill:#ebebeb"/><polygon points="684.24 119.38 684.24 107.66 692.54 108.31 692.54 118.73 684.24 119.38" style="fill:#ebebeb"/><polygon points="680.3 97.08 672.01 88.79 678.33 83.38 685.7 90.75 680.3 97.08" style="fill:#ebebeb"/><polygon points="575.63 292.18 574.64 298.22 573.59 304.71 563.93 363.9 548.15 363.9 557.8 304.71 558.86 298.22 559.84 292.18 575.63 292.18" style="fill:#ebebeb"/><path d="M573.34,292.18c-.83,6-1.73,12-2.63,18l-2.78,17.94L565,346,563.5,355l-1.56,8.94,1.28-9,1.35-9L567.35,328l2.92-17.92C571.26,304.11,572.27,298.14,573.34,292.18Z" style="fill:#c7c7c7"/><polygon points="574.64 298.22 573.59 304.71 557.8 304.71 558.86 298.22 574.64 298.22" style="fill:#c7c7c7"/><polygon points="653.56 292.18 654.54 298.22 655.6 304.71 665.25 363.9 681.04 363.9 671.39 304.71 670.33 298.22 669.35 292.18 653.56 292.18" style="fill:#ebebeb"/><path d="M655.9,292.18c.83,6,1.72,12,2.63,18l2.78,17.94L664.23,346l1.5,8.95,1.57,8.94-1.28-9-1.35-9L661.89,328,659,310.07C658,304.11,657,298.14,655.9,292.18Z" style="fill:#c7c7c7"/><polygon points="654.54 298.22 670.33 298.22 671.39 304.71 655.6 304.71 654.54 298.22" style="fill:#c7c7c7"/><polygon points="575.05 275.53 562.53 275.53 564.09 263.86 573.5 263.86 575.05 275.53" style="fill:#c7c7c7"/><path d="M580.46,255.52a11.67,11.67,0,1,1-11.67-11.66A11.66,11.66,0,0,1,580.46,255.52Z" style="fill:#dbdbdb"/><path d="M577.66,255.52a8.87,8.87,0,1,1-8.87-8.86A8.87,8.87,0,0,1,577.66,255.52Z" style="fill:#fff"/><path d="M576.21,255a7.67,7.67,0,0,0-2.9-5.44,7.82,7.82,0,0,0-6-1.56,7.48,7.48,0,0,0-5.13,3.33,7.85,7.85,0,0,0-.94,6.4,7.38,7.38,0,0,0,3.47,4.38,7.7,7.7,0,0,0,5.42.83,8,8,0,0,0,4.56-2.78,8.4,8.4,0,0,0,1.87-4.94c0-.09,0-.16-.07-.16s-.08.06-.08.15a7.81,7.81,0,0,1-.42,2.14,8.28,8.28,0,0,1-1,1.92,8.78,8.78,0,0,1-1.45,1.6,9.51,9.51,0,0,1-1.84,1.19,7.42,7.42,0,0,1-6,.14,7.28,7.28,0,0,1-4.11-4.5,7.5,7.5,0,0,1,.78-6.21,7.15,7.15,0,0,1,5-3.28A7.44,7.44,0,0,1,575.7,253a8.94,8.94,0,0,1,.47,2.06s0,0,0,0S576.21,255,576.21,255Z" style="fill:#ebebeb"/><path d="M575.17,255a6.66,6.66,0,0,0-2.52-4.65,6.82,6.82,0,0,0-5.09-1.35,6.46,6.46,0,0,0-4.44,2.83,6.81,6.81,0,0,0-.86,5.54,6.29,6.29,0,0,0,3,3.83,6.66,6.66,0,0,0,4.73.71,7,7,0,0,0,3.94-2.44,7.36,7.36,0,0,0,1.63-4.29c0-.07,0-.13-.08-.13s-.08.05-.08.13a7.08,7.08,0,0,1-4,5.91,6.38,6.38,0,0,1-5.24.15,6.2,6.2,0,0,1-3.54-3.91,6.43,6.43,0,0,1,.71-5.35,6.12,6.12,0,0,1,4.3-2.77,6.43,6.43,0,0,1,7.12,4.06,7.93,7.93,0,0,1,.42,1.76s0,0,0,0A.07.07,0,0,0,575.17,255Z" style="fill:#ebebeb"/><path d="M574.13,255a5.62,5.62,0,0,0-2.13-3.85,5.77,5.77,0,0,0-4.23-1.14,5.37,5.37,0,0,0-3.74,2.32,5.73,5.73,0,0,0-.79,4.68,5.29,5.29,0,0,0,2.55,3.28,5.67,5.67,0,0,0,4,.59,5.94,5.94,0,0,0,3.33-2.1,6.39,6.39,0,0,0,1.37-3.63c0-.06,0-.11-.07-.11s-.08,0-.09.11a6,6,0,0,1-3.41,5,5.33,5.33,0,0,1-4.42.16,5.23,5.23,0,0,1-3-3.31,5.45,5.45,0,0,1,.64-4.5,5.09,5.09,0,0,1,3.61-2.25,6.1,6.1,0,0,1,2.86.34A5.35,5.35,0,0,1,573,252.3a6,6,0,0,1,.73,1.29,6.94,6.94,0,0,1,.37,1.46l0,0A.06.06,0,0,0,574.13,255Z" style="fill:#ebebeb"/><path d="M573.09,255a4.6,4.6,0,0,0-1.75-3.05,4.78,4.78,0,0,0-3.35-.93,4.38,4.38,0,0,0-3.06,1.82,4.72,4.72,0,0,0-.71,3.83,4.29,4.29,0,0,0,2.09,2.73,4.63,4.63,0,0,0,3.35.45,4.92,4.92,0,0,0,2.72-1.75,5.34,5.34,0,0,0,1.11-3,.08.08,0,0,0-.07-.09.1.1,0,0,0-.09.09,5,5,0,0,1-2.77,4,4.31,4.31,0,0,1-3.6.17,4.17,4.17,0,0,1-2.43-2.72,4.38,4.38,0,0,1,.57-3.63,4.06,4.06,0,0,1,2.92-1.75,5.28,5.28,0,0,1,2.25.29,4.37,4.37,0,0,1,1.86,1.32,4.93,4.93,0,0,1,.59,1,5.37,5.37,0,0,1,.33,1.16l0,0S573.1,255.05,573.09,255Z" style="fill:#ebebeb"/><polygon points="666.38 275.53 653.86 275.53 655.42 263.86 664.83 263.86 666.38 275.53" style="fill:#c7c7c7"/><path d="M671.79,255.52a11.67,11.67,0,1,1-11.67-11.66A11.67,11.67,0,0,1,671.79,255.52Z" style="fill:#dbdbdb"/><path d="M669,255.52a8.87,8.87,0,1,1-8.87-8.86A8.87,8.87,0,0,1,669,255.52Z" style="fill:#fff"/><path d="M667.53,255a7.62,7.62,0,0,0-2.89-5.44,7.82,7.82,0,0,0-6-1.56,7.48,7.48,0,0,0-5.13,3.33,7.85,7.85,0,0,0-.94,6.4,7.38,7.38,0,0,0,3.47,4.38,7.7,7.7,0,0,0,5.42.83,8,8,0,0,0,4.56-2.78,8.4,8.4,0,0,0,1.87-4.94c0-.09,0-.16-.07-.16s-.08.06-.08.15a7.81,7.81,0,0,1-.42,2.14,8.69,8.69,0,0,1-1,1.92,8.78,8.78,0,0,1-1.45,1.6,9.51,9.51,0,0,1-1.84,1.19,7.42,7.42,0,0,1-6.05.14,7.28,7.28,0,0,1-4.11-4.5,7.5,7.5,0,0,1,.78-6.21,7.13,7.13,0,0,1,5-3.28A7.44,7.44,0,0,1,667,253a8.94,8.94,0,0,1,.47,2.06s0,0,0,0A.06.06,0,0,0,667.53,255Z" style="fill:#ebebeb"/><path d="M666.5,255a6.66,6.66,0,0,0-2.52-4.65,6.82,6.82,0,0,0-5.09-1.35,6.46,6.46,0,0,0-4.44,2.83,6.81,6.81,0,0,0-.86,5.54,6.29,6.29,0,0,0,3,3.83,6.66,6.66,0,0,0,4.73.71,7,7,0,0,0,3.94-2.44,7.28,7.28,0,0,0,1.62-4.29c0-.07,0-.13-.07-.13s-.08.05-.08.13a7.08,7.08,0,0,1-4,5.91,6.38,6.38,0,0,1-5.24.15,6.2,6.2,0,0,1-3.54-3.91,6.46,6.46,0,0,1,.7-5.35,6.16,6.16,0,0,1,4.3-2.77,6.43,6.43,0,0,1,7.13,4.06,7.93,7.93,0,0,1,.42,1.76s0,0,0,0A.07.07,0,0,0,666.5,255Z" style="fill:#ebebeb"/><path d="M665.46,255a5.62,5.62,0,0,0-2.13-3.85A5.77,5.77,0,0,0,659.1,250a5.37,5.37,0,0,0-3.74,2.32,5.73,5.73,0,0,0-.79,4.68,5.29,5.29,0,0,0,2.55,3.28,5.67,5.67,0,0,0,4,.59,5.94,5.94,0,0,0,3.33-2.1,6.39,6.39,0,0,0,1.37-3.63c0-.06,0-.11-.07-.11s-.08,0-.09.11a6.06,6.06,0,0,1-3.41,5,5.33,5.33,0,0,1-4.42.16,5.21,5.21,0,0,1-3-3.31,5.45,5.45,0,0,1,.64-4.5,5.09,5.09,0,0,1,3.61-2.25,6.1,6.1,0,0,1,2.86.34,5.4,5.4,0,0,1,2.33,1.71,6,6,0,0,1,.73,1.29,6.94,6.94,0,0,1,.37,1.46l0,0A.06.06,0,0,0,665.46,255Z" style="fill:#ebebeb"/><path d="M664.42,255a4.6,4.6,0,0,0-1.75-3.05,4.78,4.78,0,0,0-3.35-.93,4.38,4.38,0,0,0-3.06,1.82,4.72,4.72,0,0,0-.71,3.83,4.29,4.29,0,0,0,2.09,2.73,4.62,4.62,0,0,0,3.35.45,4.92,4.92,0,0,0,2.72-1.75,5.41,5.41,0,0,0,1.11-3,.08.08,0,0,0-.07-.09.1.1,0,0,0-.09.09,5,5,0,0,1-2.77,4,4.31,4.31,0,0,1-3.6.17,4.17,4.17,0,0,1-2.43-2.72,4.38,4.38,0,0,1,.57-3.63,4.06,4.06,0,0,1,2.92-1.75,5.28,5.28,0,0,1,2.25.29,4.28,4.28,0,0,1,1.85,1.32,4.55,4.55,0,0,1,.6,1,5.37,5.37,0,0,1,.33,1.16l0,0S664.42,255.05,664.42,255Z" style="fill:#ebebeb"/><rect width="157.3" height="30.09" x="535.95" y="269.58" style="fill:#dbdbdb"/><polygon points="568.27 269.58 556.86 299.67 536.54 299.67 547.96 269.58 568.27 269.58" style="fill:#ebebeb"/><polygon points="609.91 269.58 598.5 299.67 578.18 299.67 589.59 269.58 609.91 269.58" style="fill:#ebebeb"/><polygon points="651.55 269.58 640.13 299.67 619.82 299.67 631.24 269.58 651.55 269.58" style="fill:#ebebeb"/><polygon points="693.19 269.58 681.77 299.67 661.45 299.67 672.87 269.58 693.19 269.58" style="fill:#ebebeb"/><rect width="150.93" height="19.04" x="539.13" y="327.48" style="fill:#dbdbdb"/><polygon points="570.15 327.48 559.2 346.52 539.71 346.52 550.66 327.48 570.15 327.48" style="fill:#ebebeb"/><polygon points="610.1 327.48 599.15 346.52 579.65 346.52 590.61 327.48 610.1 327.48" style="fill:#ebebeb"/><polygon points="650.05 327.48 639.1 346.52 619.61 346.52 630.56 327.48 650.05 327.48" style="fill:#ebebeb"/><polygon points="690.01 327.48 679.05 346.52 659.55 346.52 670.51 327.48 690.01 327.48" style="fill:#ebebeb"/></g><g id="freepik--Shadow--inject-44"><ellipse cx="492.62" cy="445.33" rx="182.16" ry="12.3" style="fill:#ebebeb"/></g><g id="freepik--Floor--inject-44"><polygon points="56.76 363.88 136.32 363.64 215.88 363.55 375 363.39 534.12 363.55 613.68 363.64 693.24 363.88 613.68 364.13 534.12 364.22 375 364.38 215.88 364.22 136.32 364.13 56.76 363.88" style="fill:#263238"/></g><g id="freepik--Device--inject-44"><rect width="384.06" height="256.91" x="182.97" y="109.9" style="fill:#dbdbdb"/><rect width="378.48" height="250.64" x="185.76" y="113.04" style="fill:#263238"/><rect width="484.1" height="17.63" x="132.95" y="386.07" style="fill:#c7c7c7"/><polygon points="132.95 386.07 182.97 366.81 567.03 366.81 617.05 386.07 132.95 386.07" style="fill:#dbdbdb"/><polygon points="187.44 379.24 219.72 366.81 530.28 366.81 562.56 379.24 187.44 379.24" style="fill:#263238"/><rect width="336.27" height="212.73" x="206.87" y="131.99" style="fill:#fff"/><rect width="336.27" height="8.19" x="206.87" y="131.99" style="fill:#455a64"/><path d="M213.37,136.08a2,2,0,1,1-2-2A2,2,0,0,1,213.37,136.08Z" style="fill:#ffc727"/><path d="M221.66,136.08a2,2,0,1,1-2-2A2,2,0,0,1,221.66,136.08Z" style="fill:#ebebeb"/><path d="M230,136.08a2,2,0,1,1-2-2A2,2,0,0,1,230,136.08Z" style="fill:#fff"/><rect width="61.27" height="47.01" x="367.66" y="231.94" transform="translate(796.6 510.88) rotate(180)" style="fill:#ebebeb"/><path d="M373.76,242.22a5.57,5.57,0,1,0,4.37-4.37A5.57,5.57,0,0,0,373.76,242.22Z" style="fill:#fff"/><polygon points="387.88 268.82 428.93 268.82 408.4 243.52 387.88 268.82" style="fill:#c7c7c7"/><polygon points="367.66 268.84 404.07 268.84 385.87 252.36 367.66 268.84" style="fill:#dbdbdb"/><rect width="61.27" height="10.13" x="367.66" y="268.82" style="fill:#dbdbdb"/><rect width="46.02" height="3.87" x="223.47" y="231.94" style="fill:#dbdbdb"/><rect width="133.18" height="3.87" x="223.47" y="240.92" style="fill:#dbdbdb"/><rect width="133.18" height="3.87" x="223.47" y="249.44" style="fill:#dbdbdb"/><rect width="133.18" height="3.87" x="223.47" y="257.96" style="fill:#dbdbdb"/><rect width="133.18" height="3.87" x="223.47" y="266.48" style="fill:#dbdbdb"/><rect width="133.18" height="3.87" x="223.47" y="274.99" style="fill:#dbdbdb"/><rect width="46.02" height="10.36" x="334.38" y="155.93" style="fill:#dbdbdb"/><rect width="94.55" height="3.87" x="334.38" y="173.43" style="fill:#dbdbdb"/><rect width="94.55" height="3.87" x="334.38" y="181.95" style="fill:#dbdbdb"/><rect width="94.55" height="3.87" x="334.38" y="190.47" style="fill:#dbdbdb"/><rect width="94.55" height="3.87" x="334.38" y="198.99" style="fill:#dbdbdb"/><rect width="94.55" height="3.87" x="334.38" y="210.32" style="fill:#dbdbdb"/><rect width="94.55" height="3.87" x="334.38" y="218.84" style="fill:#dbdbdb"/><rect width="84.16" height="10.54" x="442.36" y="155.93" style="fill:#ffc727"/><rect width="83.71" height="165.33" x="442.59" y="166.56" style="fill:#fff"/><path d="M526.53,332.16H442.36V166.29h84.17Zm-83.71-.54h83.24V166.83H442.82Z" style="fill:#dbdbdb"/><polygon points="442.81 331.99 442.37 331.79 526.08 166.46 526.51 166.66 442.81 331.99" style="fill:#dbdbdb"/><polygon points="526.08 331.99 442.37 166.66 442.81 166.46 526.51 331.79 526.08 331.99" style="fill:#dbdbdb"/><rect width="100.3" height="66.41" x="223.65" y="156.11" style="fill:#fff"/><path d="M223.49,222.71v-.17l0-66.58h.17l100.46,0,0,66.75H324Zm.32-66.42,0,66.08,100,0,0-66.07Z" style="fill:#dbdbdb"/><path d="M223.81,156.29c8.43,5.35,16.82,10.78,25.19,16.22l25.05,16.42L299,205.53l12.43,8.36,12.37,8.45-12.63-8.06-12.56-8.15-25.06-16.42L248.61,173.1C240.32,167.54,232,162,223.81,156.29Z" style="fill:#dbdbdb"/><path d="M323.79,156.29c-8.23,5.67-16.51,11.25-24.8,16.81l-24.94,16.61L249,206.13l-12.57,8.15-12.62,8.06,12.37-8.45,12.42-8.36,24.94-16.6,25.06-16.42C307,167.07,315.35,161.64,323.79,156.29Z" style="fill:#dbdbdb"/><rect width="46.7" height="204.65" x="302.79" y="206.36" transform="translate(17.45 634.82) rotate(-90)" style="fill:#fff"/><path d="M428.8,285.2v47H223.47v-47Zm-.68,46.7V285.46h-204V331.9Z" style="fill:#dbdbdb"/><polygon points="428.59 331.91 428.34 332.15 223.68 285.45 223.93 285.21 428.59 331.91" style="fill:#dbdbdb"/><polygon points="428.59 285.45 223.93 332.15 223.68 331.91 428.34 285.21 428.59 285.45" style="fill:#dbdbdb"/></g><g id="freepik--Crane--inject-44"><rect width="31.14" height="3.03" x="116.29" y="126.25" transform="translate(-51.56 136.04) rotate(-46.68)" style="fill:#263238"/><rect width="21.88" height="3.03" x="121.18" y="138.53" style="fill:#455a64"/><rect width="21.88" height="3.03" x="121.18" y="114.92" style="fill:#455a64"/><rect width="3.03" height="31.14" x="130.34" y="112.2" transform="translate(-51.73 125.23) rotate(-43.31)" style="fill:#455a64"/><rect width="31.14" height="3.03" x="116.29" y="149.86" transform="translate(-68.74 143.45) rotate(-46.68)" style="fill:#263238"/><rect width="21.88" height="3.03" x="121.18" y="162.14" style="fill:#455a64"/><rect width="21.88" height="3.03" x="121.18" y="138.53" style="fill:#455a64"/><rect width="3.03" height="31.14" x="130.34" y="135.81" transform="translate(-67.93 131.66) rotate(-43.31)" style="fill:#455a64"/><rect width="31.14" height="3.03" x="116.29" y="173.47" transform="translate(-85.92 150.86) rotate(-46.68)" style="fill:#263238"/><rect width="21.88" height="3.03" x="121.18" y="185.75" style="fill:#455a64"/><rect width="21.88" height="3.03" x="121.18" y="162.14" style="fill:#455a64"/><rect width="3.03" height="31.14" x="130.34" y="159.42" transform="translate(-84.12 138.09) rotate(-43.31)" style="fill:#455a64"/><rect width="31.14" height="3.03" x="116.29" y="197.08" transform="translate(-103.09 158.27) rotate(-46.68)" style="fill:#263238"/><rect width="21.88" height="3.03" x="121.18" y="209.36" style="fill:#455a64"/><rect width="21.88" height="3.03" x="121.18" y="185.75" style="fill:#455a64"/><rect width="3.03" height="31.14" x="130.34" y="183.03" transform="translate(-100.31 144.52) rotate(-43.31)" style="fill:#455a64"/><rect width="31.14" height="3.03" x="116.29" y="220.69" transform="translate(-120.27 165.69) rotate(-46.68)" style="fill:#263238"/><rect width="21.88" height="3.03" x="121.18" y="232.97" style="fill:#455a64"/><rect width="21.88" height="3.03" x="121.18" y="209.36" style="fill:#455a64"/><rect width="3.03" height="31.14" x="130.34" y="206.63" transform="translate(-116.5 150.95) rotate(-43.31)" style="fill:#455a64"/><rect width="31.14" height="3.03" x="116.29" y="244.3" transform="translate(-137.44 173.1) rotate(-46.68)" style="fill:#263238"/><rect width="21.88" height="3.03" x="121.18" y="256.57" style="fill:#455a64"/><rect width="21.88" height="3.03" x="121.18" y="232.97" style="fill:#455a64"/><rect width="3.03" height="31.14" x="130.34" y="230.24" transform="translate(-132.7 157.38) rotate(-43.31)" style="fill:#455a64"/><rect width="31.14" height="3.03" x="116.29" y="267.9" transform="translate(-154.62 180.51) rotate(-46.68)" style="fill:#263238"/><rect width="21.88" height="3.03" x="121.18" y="280.18" style="fill:#455a64"/><rect width="21.88" height="3.03" x="121.18" y="256.57" style="fill:#455a64"/><rect width="3.03" height="31.14" x="130.34" y="253.85" transform="translate(-148.89 163.8) rotate(-43.31)" style="fill:#455a64"/><rect width="31.14" height="3.03" x="116.29" y="291.51" transform="translate(-171.79 187.91) rotate(-46.68)" style="fill:#263238"/><rect width="21.88" height="3.03" x="121.18" y="303.79" style="fill:#455a64"/><rect width="21.88" height="3.03" x="121.18" y="280.18" style="fill:#455a64"/><rect width="3.03" height="31.14" x="130.34" y="277.46" transform="translate(-165.08 170.23) rotate(-43.31)" style="fill:#455a64"/><rect width="31.14" height="3.03" x="116.29" y="315.12" transform="translate(-188.96 195.31) rotate(-46.68)" style="fill:#263238"/><rect width="21.88" height="3.03" x="121.18" y="327.4" style="fill:#455a64"/><rect width="21.88" height="3.03" x="121.18" y="303.79" style="fill:#455a64"/><rect width="3.03" height="31.14" x="130.34" y="301.07" transform="translate(-181.28 176.66) rotate(-43.31)" style="fill:#455a64"/><rect width="31.14" height="3.03" x="116.29" y="338.73" transform="translate(-206.19 202.86) rotate(-46.7)" style="fill:#263238"/><rect width="21.88" height="3.03" x="121.18" y="351.01" style="fill:#455a64"/><rect width="21.88" height="3.03" x="121.18" y="327.4" style="fill:#455a64"/><rect width="3.03" height="31.14" x="130.34" y="324.68" transform="translate(-197.47 183.1) rotate(-43.31)" style="fill:#455a64"/><rect width="31.14" height="3.03" x="116.29" y="362.34" transform="translate(-223.38 210.27) rotate(-46.7)" style="fill:#263238"/><rect width="21.88" height="3.03" x="121.18" y="374.62" style="fill:#455a64"/><rect width="21.88" height="3.03" x="121.18" y="351.01" style="fill:#455a64"/><rect width="3.03" height="31.14" x="130.34" y="348.28" transform="translate(-213.66 189.52) rotate(-43.31)" style="fill:#455a64"/><rect width="13.75" height="31.56" x="124.79" y="365.39" transform="translate(512.83 249.51) rotate(90)" style="fill:#455a64"/><rect width="259" height="7.91" x="-9.67" y="241.71" transform="translate(365.49 125.83) rotate(90)" style="fill:#455a64"/><rect width="259" height="7.91" x="13.98" y="241.71" transform="translate(389.15 102.18) rotate(90)" style="fill:#455a64"/><polygon points="355.33 114.31 331.69 91.01 132.15 53.83 71.51 91.19 69.92 88.6 131.56 50.63 333.15 88.2 357.46 112.14 355.33 114.31" style="fill:#455a64"/><polygon points="156.21 94.28 131.91 60.5 108.65 94.23 103.65 90.78 131.8 49.96 161.14 90.73 156.21 94.28" style="fill:#263238"/><rect width="3.03" height="31.14" x="318.2" y="89.91" transform="translate(23.67 265.79) rotate(-46.69)" style="fill:#263238"/><rect width="3.03" height="21.88" x="330.48" y="94.28" style="fill:#455a64"/><rect width="3.03" height="21.88" x="306.87" y="94.28" style="fill:#455a64"/><rect width="31.14" height="3.03" x="304.15" y="103.96" transform="translate(14.73 248.06) rotate(-43.31)" style="fill:#455a64"/><rect width="3.03" height="31.14" x="294.59" y="89.91" transform="translate(16.25 248.61) rotate(-46.69)" style="fill:#263238"/><rect width="3.03" height="21.88" x="306.87" y="94.28" style="fill:#455a64"/><rect width="3.03" height="21.88" x="283.26" y="94.28" style="fill:#455a64"/><rect width="31.14" height="3.03" x="280.54" y="103.96" transform="translate(8.3 231.87) rotate(-43.32)" style="fill:#455a64"/><rect width="3.03" height="31.14" x="270.98" y="89.91" transform="translate(8.83 231.43) rotate(-46.69)" style="fill:#263238"/><rect width="3.03" height="21.88" x="283.26" y="94.28" style="fill:#455a64"/><rect width="3.03" height="21.88" x="259.65" y="94.28" style="fill:#455a64"/><rect width="31.14" height="3.03" x="256.93" y="103.96" transform="translate(1.87 215.67) rotate(-43.32)" style="fill:#455a64"/><rect width="3.03" height="31.14" x="247.37" y="89.91" transform="translate(1.42 214.25) rotate(-46.69)" style="fill:#263238"/><rect width="3.03" height="21.88" x="259.65" y="94.28" style="fill:#455a64"/><rect width="3.03" height="21.88" x="236.04" y="94.28" style="fill:#455a64"/><rect width="31.14" height="3.03" x="233.32" y="103.96" transform="translate(-4.56 199.48) rotate(-43.32)" style="fill:#455a64"/><rect width="3.03" height="31.14" x="223.77" y="89.91" transform="translate(-6 197.07) rotate(-46.69)" style="fill:#263238"/><rect width="3.03" height="21.88" x="236.04" y="94.28" style="fill:#455a64"/><rect width="3.03" height="21.88" x="212.44" y="94.28" style="fill:#455a64"/><rect width="31.14" height="3.03" x="209.71" y="103.96" transform="translate(-10.99 183.29) rotate(-43.32)" style="fill:#455a64"/><rect width="3.03" height="31.14" x="200.16" y="89.91" transform="translate(-13.41 179.89) rotate(-46.69)" style="fill:#263238"/><rect width="3.03" height="21.88" x="212.44" y="94.28" style="fill:#455a64"/><rect width="3.03" height="21.88" x="188.83" y="94.28" style="fill:#455a64"/><rect width="31.14" height="3.03" x="186.1" y="103.96" transform="translate(-17.42 167.09) rotate(-43.32)" style="fill:#455a64"/><rect width="3.03" height="31.14" x="176.55" y="89.91" transform="translate(-20.83 162.71) rotate(-46.69)" style="fill:#263238"/><rect width="3.03" height="21.88" x="188.83" y="94.28" style="fill:#455a64"/><rect width="3.03" height="21.88" x="165.22" y="94.28" style="fill:#455a64"/><rect width="31.14" height="3.03" x="162.5" y="103.96" transform="translate(-23.85 150.9) rotate(-43.32)" style="fill:#455a64"/><rect width="3.03" height="31.14" x="152.94" y="89.91" transform="translate(-28.24 145.53) rotate(-46.69)" style="fill:#263238"/><rect width="3.03" height="21.88" x="165.22" y="94.28" style="fill:#455a64"/><rect width="3.03" height="21.88" x="141.61" y="94.28" style="fill:#455a64"/><rect width="31.14" height="3.03" x="138.89" y="103.96" transform="translate(-30.28 134.7) rotate(-43.32)" style="fill:#455a64"/><rect width="3.03" height="31.14" x="129.33" y="89.91" transform="translate(-35.66 128.35) rotate(-46.69)" style="fill:#263238"/><rect width="3.03" height="21.88" x="141.61" y="94.28" style="fill:#455a64"/><rect width="3.03" height="21.88" x="118" y="94.28" style="fill:#455a64"/><rect width="31.14" height="3.03" x="115.28" y="103.96" transform="translate(-36.72 118.5) rotate(-43.32)" style="fill:#455a64"/><rect width="3.03" height="31.14" x="105.72" y="89.91" transform="translate(-43.07 111.17) rotate(-46.69)" style="fill:#263238"/><rect width="3.03" height="21.88" x="118" y="94.28" style="fill:#455a64"/><rect width="3.03" height="21.88" x="94.39" y="94.28" style="fill:#455a64"/><rect width="31.14" height="3.03" x="91.67" y="103.96" transform="translate(-43.15 102.3) rotate(-43.32)" style="fill:#455a64"/><rect width="3.03" height="31.14" x="82.11" y="89.91" transform="matrix(0.69, -0.73, 0.73, 0.69, -50.49, 93.99)" style="fill:#263238"/><rect width="3.03" height="21.88" x="94.39" y="94.28" style="fill:#455a64"/><rect width="3.03" height="21.88" x="70.78" y="94.28" style="fill:#455a64"/><rect width="31.14" height="3.03" x="68.06" y="103.96" transform="translate(-49.58 86.11) rotate(-43.32)" style="fill:#455a64"/><rect width="13.73" height="31.56" x="56.16" y="88.55" style="fill:#263238"/><rect width="13.75" height="31.56" x="69.89" y="88.55" style="fill:#455a64"/><rect width="26.36" height="15.74" x="75.43" y="120.11" style="fill:#455a64"/><rect width="287.57" height="7.91" x="69.89" y="112.2" style="fill:#455a64"/><polygon points="341.05 96.46 69.89 96.46 69.89 88.55 333.32 88.55 341.05 96.46" style="fill:#455a64"/><rect width="3.03" height="21.88" x="335.65" y="94.28" style="fill:#455a64"/><polygon points="227.92 206.13 246.92 203.09 265.92 200.15 303.96 194.42 304.06 194.41 304.16 194.43 367.46 210.85 399.1 219.14 430.7 227.54 398.97 219.63 367.27 211.6 303.91 195.39 304.11 195.4 266.03 200.89 246.99 203.56 227.92 206.13" style="fill:#263238"/><rect width="3.03" height="44.8" x="289.38" y="123.34" style="fill:#263238"/><rect width="3.03" height="44.8" x="315.05" y="124.34" style="fill:#263238"/><rect width="40.01" height="6.45" x="283.94" y="120.11" style="fill:#455a64"/><path d="M305.46,175.67l-.34,6.73-1-1.16a10.78,10.78,0,0,1,3.06,1.32,7.21,7.21,0,0,1,2.4,2.36,6,6,0,0,1-.16,6.4,6.24,6.24,0,0,1-5.41,2.8,6.58,6.58,0,0,1-5-3,6.28,6.28,0,0,0,5,2.4,5.39,5.39,0,0,0,4.41-2.82,4.55,4.55,0,0,0-.3-4.81,7,7,0,0,0-4.41-2.33l-.92-.16-.05-1-.33-6.73Z" style="fill:#263238"/><polygon points="323.95 161.87 323.95 172.85 303.94 177.6 283.94 172.85 283.94 161.87 323.95 161.87" style="fill:#455a64"/><path d="M293.12,168.31a2.33,2.33,0,1,1-2.33-2.32A2.32,2.32,0,0,1,293.12,168.31Z" style="fill:#263238"/><path d="M319.41,168.31a2.32,2.32,0,1,1-2.32-2.32A2.32,2.32,0,0,1,319.41,168.31Z" style="fill:#263238"/><rect width="205.22" height="46.55" x="223.58" y="216.44" transform="translate(624.89 512.93) rotate(-173.86)" style="fill:#ffc727"/><polygon points="333.24 253.79 426.8 263.86 382.72 233.66 333.24 253.79" style="fill:#ffc727"/><polygon points="333.24 253.79 426.8 263.86 382.72 233.66 333.24 253.79" style="opacity:.2"/><polygon points="287.17 248.86 370.14 257.79 330.42 236.94 287.17 248.86" style="fill:#ffc727"/><polygon points="287.17 248.86 370.14 257.79 330.42 236.94 287.17 248.86" style="opacity:.1"/><rect width="205.22" height="10.03" x="221.63" y="252.86" transform="translate(29.43 -33.19) rotate(6.14)" style="fill:#ffc727"/><rect width="205.22" height="10.03" x="221.63" y="252.86" transform="translate(29.43 -33.19) rotate(6.14)" style="opacity:.1"/><path d="M251.82,223.65a6.33,6.33,0,1,1-5.61-7A6.32,6.32,0,0,1,251.82,223.65Z" style="fill:#fff;opacity:.6000000000000001"/><path d="M137,52.23a5.12,5.12,0,1,1-5.12-5.12A5.12,5.12,0,0,1,137,52.23Z" style="fill:#a6a6a6"/><path d="M134.25,52.23a2.4,2.4,0,1,1-2.39-2.39A2.39,2.39,0,0,1,134.25,52.23Z" style="fill:#455a64"/><rect width="44.18" height="10.44" x="109.57" y="388.05" style="fill:#263238"/><rect width="63.34" height="20.48" x="99.99" y="398.49" style="fill:#455a64"/><path d="M157.35,138.37H110.07V86H141a10.78,10.78,0,0,1,10.69,9.36Z" style="fill:#ffc727"/><path d="M144.48,122.47H122.32a2.07,2.07,0,0,1-.71-.11,2.5,2.5,0,0,1-1.78-2.39V92h15.76a7.49,7.49,0,0,1,1.58.15,8.54,8.54,0,0,1,3.31,1.32,8.38,8.38,0,0,1,1.84,1.67,8.76,8.76,0,0,1,2,4.49l2.66,20A2.52,2.52,0,0,1,144.48,122.47Z" style="fill:#263238"/><g style="opacity:.4"><path d="M142.1,107.88a2.44,2.44,0,0,1-.73,1.75l-12.83,12.84h-6.22a2.07,2.07,0,0,1-.71-.11l16.25-16.24a2.49,2.49,0,0,1,4.24,1.76Z" style="fill:#fff"/><path d="M142.32,95.15l-22.49,22.48v-3.5l20.65-20.65A8.38,8.38,0,0,1,142.32,95.15Z" style="fill:#fff"/><path d="M137.17,92.16,124.4,104.93a1.87,1.87,0,0,1-3.19-1.32,1.84,1.84,0,0,1,.55-1.3L132.06,92h3.53A7.49,7.49,0,0,1,137.17,92.16Z" style="fill:#fff"/></g></g><g id="freepik--Fence--inject-44"><polygon points="106.73 356.33 105.78 363.13 104.75 370.44 95.35 437.05 79.99 437.05 89.39 370.44 90.42 363.13 91.37 356.33 106.73 356.33" style="fill:#ffc727"/><path d="M104.51,356.33c-.81,6.75-1.68,13.49-2.56,20.22l-2.71,20.2L96.4,416.91,94.94,427l-1.53,10.06,1.25-10.11L96,416.83l2.71-20.19,2.84-20.17C102.49,369.75,103.47,363,104.51,356.33Z" style="opacity:.1"/><polygon points="105.78 363.13 104.75 370.44 89.39 370.44 90.42 363.13 105.78 363.13" style="opacity:.1"/><polygon points="182.56 356.33 183.51 363.13 184.54 370.44 193.93 437.05 209.29 437.05 199.9 370.44 198.87 363.13 197.92 356.33 182.56 356.33" style="fill:#ffc727"/><path d="M184.83,356.33c.81,6.75,1.68,13.49,2.56,20.22l2.71,20.2,2.84,20.16L194.4,427l1.53,10.06-1.25-10.11-1.31-10.11-2.71-20.19-2.84-20.17C186.85,369.75,185.87,363,184.83,356.33Z" style="opacity:.1"/><polygon points="183.51 363.13 198.87 363.13 199.9 370.44 184.54 370.44 183.51 363.13" style="opacity:.1"/><polygon points="106.17 342.36 93.99 342.36 95.51 331.01 104.66 331.01 106.17 342.36" style="fill:#ffc727"/><polygon points="106.17 342.36 93.99 342.36 95.51 331.01 104.66 331.01 106.17 342.36" style="opacity:.1"/><path d="M111.43,322.89a11.35,11.35,0,1,1-11.35-11.35A11.35,11.35,0,0,1,111.43,322.89Z" style="fill:#ffc727"/><path d="M108.71,322.89a8.63,8.63,0,1,1-8.63-8.62A8.63,8.63,0,0,1,108.71,322.89Z" style="fill:#fff"/><path d="M107.29,322.39a7.47,7.47,0,0,0-2.81-5.29,7.66,7.66,0,0,0-5.81-1.52,7.27,7.27,0,0,0-5,3.24,7.59,7.59,0,0,0-.91,6.22,7.11,7.11,0,0,0,3.37,4.27,7.47,7.47,0,0,0,5.28.81,7.75,7.75,0,0,0,4.43-2.71,8.23,8.23,0,0,0,1.82-4.81c0-.08,0-.15-.07-.15s-.08.06-.08.15a8.15,8.15,0,0,1-.4,2.08,8,8,0,0,1-2.37,3.42,9,9,0,0,1-1.79,1.16,7.2,7.2,0,0,1-5.89.14,7.07,7.07,0,0,1-4-4.38,7.3,7.3,0,0,1,.76-6,7,7,0,0,1,4.86-3.2,7.49,7.49,0,0,1,7.14,2.85,7.76,7.76,0,0,1,1,1.79,9.15,9.15,0,0,1,.45,2s0,0,0,0A.06.06,0,0,0,107.29,322.39Z" style="fill:#ffc727"/><path d="M106.28,322.4a6.47,6.47,0,0,0-2.44-4.52,6.63,6.63,0,0,0-5-1.31,6.24,6.24,0,0,0-4.31,2.75,6.58,6.58,0,0,0-.84,5.39,6.17,6.17,0,0,0,2.92,3.73,6.6,6.6,0,0,0,4.61.69,6.72,6.72,0,0,0,3.83-2.38,7.2,7.2,0,0,0,1.58-4.17c0-.07,0-.13-.07-.13s-.08.05-.08.13a6.89,6.89,0,0,1-3.94,5.75,6.19,6.19,0,0,1-5.09.15A6.11,6.11,0,0,1,94,324.67a6.31,6.31,0,0,1,.69-5.2,6,6,0,0,1,4.19-2.7,6.49,6.49,0,0,1,6.09,2.42,6.91,6.91,0,0,1,.84,1.53,8.05,8.05,0,0,1,.41,1.71,0,0,0,0,0,0,0A0,0,0,0,0,106.28,322.4Z" style="fill:#ffc727"/><path d="M105.27,322.41a5.4,5.4,0,0,0-2.07-3.74,5.57,5.57,0,0,0-4.11-1.11,5.23,5.23,0,0,0-3.64,2.25,5.58,5.58,0,0,0-.77,4.56,5.14,5.14,0,0,0,2.48,3.19,5.48,5.48,0,0,0,3.93.57,5.71,5.71,0,0,0,3.24-2,6.21,6.21,0,0,0,1.33-3.53c0-.06,0-.11-.07-.11s-.08,0-.08.11a5.9,5.9,0,0,1-3.32,4.84,5.2,5.2,0,0,1-4.3.15A5.07,5.07,0,0,1,95,324.33a5.27,5.27,0,0,1,.63-4.37,5,5,0,0,1,3.51-2.2,6,6,0,0,1,2.78.33,5.19,5.19,0,0,1,2.26,1.66,5.59,5.59,0,0,1,.71,1.26,6.74,6.74,0,0,1,.37,1.42s0,0,0,0S105.28,322.43,105.27,322.41Z" style="fill:#ffc727"/><path d="M104.26,322.42a4.4,4.4,0,0,0-1.7-3,4.64,4.64,0,0,0-3.26-.91,4.24,4.24,0,0,0-3,1.77,4.57,4.57,0,0,0-.7,3.73,4.19,4.19,0,0,0,2,2.65,4.47,4.47,0,0,0,3.25.44,4.68,4.68,0,0,0,2.65-1.71,5.17,5.17,0,0,0,1.08-2.88c0-.05,0-.09-.07-.09a.09.09,0,0,0-.08.09,4.86,4.86,0,0,1-2.7,3.92,4.16,4.16,0,0,1-3.5.17A4.09,4.09,0,0,1,95.93,324a4.26,4.26,0,0,1,.56-3.54,3.94,3.94,0,0,1,2.84-1.69,5.15,5.15,0,0,1,2.19.28,4.13,4.13,0,0,1,1.8,1.29,4.64,4.64,0,0,1,.59,1,6.83,6.83,0,0,1,.32,1.14h0S104.27,322.43,104.26,322.42Z" style="fill:#ffc727"/><polygon points="195.03 342.36 182.85 342.36 184.37 331.01 193.52 331.01 195.03 342.36" style="fill:#ffc727"/><polygon points="195.03 342.36 182.85 342.36 184.37 331.01 193.52 331.01 195.03 342.36" style="opacity:.1"/><path d="M200.29,322.89a11.35,11.35,0,1,1-11.35-11.35A11.35,11.35,0,0,1,200.29,322.89Z" style="fill:#ffc727"/><path d="M197.57,322.89a8.63,8.63,0,1,1-8.63-8.62A8.63,8.63,0,0,1,197.57,322.89Z" style="fill:#fff"/><path d="M196.15,322.39a7.47,7.47,0,0,0-2.81-5.29,7.66,7.66,0,0,0-5.81-1.52,7.27,7.27,0,0,0-5,3.24,7.59,7.59,0,0,0-.91,6.22,7.11,7.11,0,0,0,3.37,4.27,7.47,7.47,0,0,0,5.28.81,7.75,7.75,0,0,0,4.43-2.71,8.16,8.16,0,0,0,1.82-4.81c0-.08,0-.15-.07-.15s-.08.06-.08.15a7.74,7.74,0,0,1-.4,2.08,8,8,0,0,1-2.37,3.42,9,9,0,0,1-1.79,1.16,7.2,7.2,0,0,1-5.89.14,7.07,7.07,0,0,1-4-4.38,7.3,7.3,0,0,1,.76-6,7,7,0,0,1,4.86-3.2,7.49,7.49,0,0,1,7.14,2.85,7.76,7.76,0,0,1,1,1.79,9.15,9.15,0,0,1,.45,2s0,0,0,0A.11.11,0,0,0,196.15,322.39Z" style="fill:#ffc727"/><path d="M195.14,322.4a6.47,6.47,0,0,0-2.44-4.52,6.63,6.63,0,0,0-5-1.31,6.24,6.24,0,0,0-4.31,2.75,6.58,6.58,0,0,0-.84,5.39,6.17,6.17,0,0,0,2.92,3.73,6.6,6.6,0,0,0,4.61.69,6.72,6.72,0,0,0,3.83-2.38,7.2,7.2,0,0,0,1.58-4.17c0-.07,0-.13-.07-.13s-.08.05-.08.13a6.89,6.89,0,0,1-3.94,5.75,6.19,6.19,0,0,1-5.09.15,6.11,6.11,0,0,1-3.46-3.81,6.31,6.31,0,0,1,.69-5.2,6,6,0,0,1,4.19-2.7,6.49,6.49,0,0,1,6.09,2.42,6.91,6.91,0,0,1,.84,1.53,8.05,8.05,0,0,1,.41,1.71s0,0,0,0S195.15,322.42,195.14,322.4Z" style="fill:#ffc727"/><path d="M194.13,322.41a5.4,5.4,0,0,0-2.07-3.74,5.57,5.57,0,0,0-4.11-1.11,5.23,5.23,0,0,0-3.64,2.25,5.58,5.58,0,0,0-.77,4.56,5.14,5.14,0,0,0,2.48,3.19,5.48,5.48,0,0,0,3.93.57,5.71,5.71,0,0,0,3.24-2,6.14,6.14,0,0,0,1.33-3.53c0-.06,0-.11-.07-.11s-.08,0-.08.11a5.9,5.9,0,0,1-3.32,4.84,5.2,5.2,0,0,1-4.3.15,5.07,5.07,0,0,1-2.91-3.22,5.27,5.27,0,0,1,.63-4.37,5,5,0,0,1,3.51-2.2,6,6,0,0,1,2.78.33,5.06,5.06,0,0,1,3,2.92,6.74,6.74,0,0,1,.37,1.42s0,0,0,0S194.14,322.43,194.13,322.41Z" style="fill:#ffc727"/><path d="M193.12,322.42a4.4,4.4,0,0,0-1.7-3,4.63,4.63,0,0,0-3.26-.91,4.24,4.24,0,0,0-3,1.77,4.6,4.6,0,0,0-.7,3.73,4.19,4.19,0,0,0,2,2.65,4.47,4.47,0,0,0,3.25.44,4.68,4.68,0,0,0,2.65-1.71,5.17,5.17,0,0,0,1.08-2.88c0-.05,0-.09-.07-.09a.09.09,0,0,0-.08.09,4.86,4.86,0,0,1-2.7,3.92,4.16,4.16,0,0,1-3.5.17,4.09,4.09,0,0,1-2.37-2.65,4.26,4.26,0,0,1,.56-3.54,3.94,3.94,0,0,1,2.84-1.69,5.15,5.15,0,0,1,2.19.28,4.13,4.13,0,0,1,1.8,1.29,4.64,4.64,0,0,1,.59,1,6.83,6.83,0,0,1,.32,1.14h0S193.13,322.43,193.12,322.42Z" style="fill:#ffc727"/><rect width="153.04" height="29.27" x="68.12" y="336.57" style="fill:#fff"/><path d="M221.42,366.09H67.87V336.32H221.42Zm-153-.5H220.92V336.82H68.37Z" style="fill:#263238"/><polygon points="99.58 336.57 88.47 365.85 68.71 365.85 79.81 336.57 99.58 336.57" style="fill:#ffc727"/><polygon points="140.09 336.57 128.99 365.85 109.21 365.85 120.32 336.57 140.09 336.57" style="fill:#ffc727"/><polygon points="180.6 336.57 169.49 365.85 149.73 365.85 160.84 336.57 180.6 336.57" style="fill:#ffc727"/><polygon points="221.12 336.57 210.01 365.85 190.24 365.85 201.34 336.57 221.12 336.57" style="fill:#ffc727"/><rect width="146.85" height="18.53" x="71.22" y="401.62" style="fill:#fff"/><path d="M218.32,420.4H71v-19H218.32Zm-146.85-.5H217.82v-18H71.47Z" style="fill:#263238"/><polygon points="101.4 401.62 90.74 420.15 71.78 420.15 82.44 401.62 101.4 401.62" style="fill:#ffc727"/><polygon points="140.28 401.62 129.62 420.15 110.65 420.15 121.31 401.62 140.28 401.62" style="fill:#ffc727"/><polygon points="179.14 401.62 168.49 420.15 149.52 420.15 160.18 401.62 179.14 401.62" style="fill:#ffc727"/><polygon points="218.02 401.62 207.36 420.15 188.39 420.15 199.05 401.62 218.02 401.62" style="fill:#ffc727"/><circle cx="144.64" cy="351.21" r="23.82" transform="translate(-230.55 410.38) rotate(-76.58)" style="fill:#fff"/><path d="M144.64,375.27a24.07,24.07,0,1,1,24.07-24.06A24.08,24.08,0,0,1,144.64,375.27Zm0-47.63a23.57,23.57,0,1,0,23.57,23.57A23.59,23.59,0,0,0,144.64,327.64Z" style="fill:#263238"/><circle cx="144.64" cy="351.21" r="20.19" transform="translate(-230.52 410.52) rotate(-76.6)" style="fill:#ffc727"/><rect width="25.32" height="4.69" x="131.98" y="348.86" style="fill:#fff"/></g><g id="freepik--Cones--inject-44"><path d="M477.88,439.5l5.06-34.82,1.47.66,2.34,1.06L496.91,411,506,415.1l6,2.71,9.11,4.12,5,2.25a4.81,4.81,0,0,1-1.29,8.93l-2.11.29h0l-3.32.45-9.89,1.34-6.52.89-9.9,1.35-4.14.57Z" style="fill:#ffc727"/><path d="M484.66,405.65a22.28,22.28,0,0,1-1.86,3.76c-3.09,4.82-5.32,14.68-3.64,26a14.45,14.45,0,0,0,.75,3.59l2.12-.14s9.87-21.66,42.14-15.64l-3-1.38-9.1-4.1-6-2.71-9.1-4.12Z" style="opacity:.1;mix-blend-mode:multiply"/><polygon points="509.49 435.19 512.01 417.81 521.12 421.93 519.38 433.85 509.49 435.19" style="fill:#ebebeb"/><polygon points="493.07 437.43 496.91 410.99 506.02 415.11 502.97 436.08 493.07 437.43" style="fill:#ebebeb"/><path d="M389,438.64h-33.9l.42-1.5.69-2.38,3-10.32,2.66-9.25,1.75-6.09,2.66-9.25,1.46-5.07a4.62,4.62,0,0,1,8.68,0l.57,2h0l.89,3.09,2.66,9.25,1.75,6.09,2.66,9.25,1.11,3.87Z" style="fill:#ffc727"/><polygon points="390.25 447.43 345.7 447.43 352.8 429.84 352.8 429.84 397.35 429.84 397.35 429.84 390.25 447.43 390.25 447.43" style="fill:#ffc727"/><polygon points="380.55 409.1 363.63 409.1 366.29 399.86 377.89 399.86 380.55 409.1" style="fill:#ebebeb"/><polygon points="384.96 424.44 359.22 424.44 361.88 415.19 382.3 415.19 384.96 424.44" style="fill:#ebebeb"/><path d="M354.66,436.28a35.42,35.42,0,0,0,8.6,2.61,46.42,46.42,0,0,0,8.89.68c1.49-.1,3-.11,4.46-.34.74-.1,1.49-.15,2.22-.28s1.47-.28,2.21-.4c.37-.07.74-.13,1.11-.21l1.09-.27,2.19-.53c1.45-.39,2.88-.88,4.36-1.26-1.37.65-2.75,1.3-4.16,1.86l-2.17.74-1.08.36c-.37.11-.74.19-1.11.29l-2.24.53c-.74.17-1.51.25-2.26.38a44,44,0,0,1-4.59.42,36.41,36.41,0,0,1-9.13-1A24.94,24.94,0,0,1,354.66,436.28Z" style="fill:#263238"/><path d="M355.83,436.86a21.76,21.76,0,0,1,3.84,1.25c5,2.28,14.73,3,25.34-.14a14,14,0,0,0,3.31-1.21l-.43-2s-22-6.4-20.74-38l-.89,3.09-2.66,9.25-1.75,6.09-2.66,9.25Z" style="opacity:.1;mix-blend-mode:multiply"/><polygon points="468.66 439.44 475.31 393.66 492.33 403.59 485.67 449.36 468.66 439.44 468.66 439.44" style="fill:#ffc727"/><path d="M485.61,422.53c-.95,8.46-4,15.06-6.84,14.74s-4.35-7.43-3.4-15.89,4-15.05,6.85-14.73S486.56,414.08,485.61,422.53Z" style="fill:#263238"/></g></svg>